<svg width="102" height="36" viewBox="0 0 102 36" fill="none" xmlns="http://www.w3.org/2000/svg">
<g clip-path="url(#clip0_1672_3207)">
<path d="M3.54694 0.948242H98.4531C100.143 0.948242 101.5 2.29636 101.5 3.94413V31.9524C101.5 33.6001 100.143 34.9482 98.4531 34.9482H3.54694C1.8573 34.9482 0.5 33.6001 0.5 31.9524V3.94413C0.5 2.29636 1.8573 0.948242 3.54694 0.948242Z" stroke="white"/>
<path d="M22.3298 17.1471C22.3076 14.6435 24.3522 13.4255 24.4457 13.3688C23.2877 11.6575 21.493 11.4237 20.8623 11.4051C19.3549 11.2443 17.8927 12.3193 17.1248 12.3193C16.3416 12.3193 15.1591 11.4206 13.8847 11.447C12.2447 11.4726 10.7105 12.4351 9.86909 13.9296C8.13256 16.9769 9.42768 21.4551 11.0914 23.9183C11.9237 25.1254 12.8961 26.4716 14.169 26.4242C15.4143 26.3729 15.8795 25.6194 17.3823 25.6194C18.8713 25.6194 19.3081 26.4242 20.6063 26.3931C21.9428 26.3729 22.7842 25.1821 23.5874 23.9641C24.5491 22.583 24.9354 21.2197 24.9507 21.1498C24.92 21.1397 22.3559 20.1478 22.3298 17.1471Z" fill="white"/>
<path d="M19.8774 9.78467C20.5472 8.93564 21.0054 7.78057 20.8782 6.6084C19.9088 6.6519 18.6964 7.28808 17.9983 8.11847C17.3806 8.8502 16.8289 10.0496 16.9714 11.1774C18.0604 11.2598 19.1785 10.6205 19.8774 9.78467Z" fill="white"/>
<path d="M40.3672 26.2515H38.6268L37.6735 23.2151H34.3598L33.4517 26.2515H31.7573L35.0411 15.9141H37.0688L40.3672 26.2515ZM37.3861 21.9411L36.524 19.2426C36.4328 18.966 36.2611 18.3167 36.0098 17.2944H35.9791C35.8779 17.7341 35.7162 18.3835 35.4948 19.2426L34.6472 21.9411H37.3861Z" fill="white"/>
<path d="M48.7956 22.4327C48.7956 23.7004 48.4561 24.7025 47.7763 25.4381C47.1678 26.0929 46.4115 26.4199 45.5095 26.4199C44.5355 26.4199 43.835 26.0681 43.4097 25.362V29.2731H41.7759V21.2473C41.7759 20.4511 41.7552 19.6347 41.7153 18.7974H43.1522L43.2434 19.9796H43.2741C43.8189 19.0887 44.6458 18.6436 45.7555 18.6436C46.623 18.6436 47.3472 18.9908 47.9265 19.686C48.5051 20.3828 48.7956 21.2978 48.7956 22.4327ZM47.1311 22.4933C47.1311 21.7678 46.9701 21.1697 46.6467 20.6989C46.2934 20.2088 45.8191 19.9625 45.2244 19.9625C44.8213 19.9625 44.455 20.0992 44.1278 20.3696C43.7998 20.6407 43.5852 20.9957 43.4848 21.4361C43.4342 21.6404 43.4089 21.8074 43.4089 21.9395V23.1839C43.4089 23.7245 43.5729 24.182 43.9009 24.5564C44.2289 24.9293 44.655 25.1165 45.1792 25.1165C45.7946 25.1165 46.2735 24.8749 46.6161 24.3956C46.9594 23.9148 47.1311 23.281 47.1311 22.4933Z" fill="white"/>
<path d="M57.2533 22.4327C57.2533 23.7004 56.9139 24.7025 56.2341 25.4381C55.6249 26.0929 54.8693 26.4199 53.9665 26.4199C52.9933 26.4199 52.2928 26.0681 51.8667 25.362V29.2731H50.2329V21.2473C50.2329 20.4511 50.2122 19.6347 50.1724 18.7974H51.6093L51.7004 19.9796H51.7311C52.2752 19.0887 53.1021 18.6436 54.2125 18.6436C55.0792 18.6436 55.8042 18.9908 56.3843 19.686C56.9621 20.3828 57.2533 21.2978 57.2533 22.4327ZM55.5881 22.4933C55.5881 21.7678 55.4264 21.1697 55.103 20.6989C54.7505 20.2088 54.2769 19.9625 53.6822 19.9625C53.2791 19.9625 52.9128 20.0992 52.584 20.3696C52.2568 20.6407 52.0422 20.9957 51.9418 21.4361C51.892 21.6404 51.8652 21.8074 51.8652 21.9395V23.1839C51.8652 23.7245 52.03 24.182 52.3564 24.5564C52.6844 24.9285 53.1105 25.1165 53.6362 25.1165C54.2524 25.1165 54.7313 24.8749 55.0731 24.3956C55.4164 23.9148 55.5881 23.281 55.5881 22.4933Z" fill="white"/>
<path d="M66.7101 23.3523C66.7101 24.2316 66.4074 24.947 65.8036 25.4993C65.1399 26.1021 64.2134 26.4042 63.0256 26.4042C61.9282 26.4042 61.0484 26.1899 60.3848 25.7603L60.7626 24.3799C61.4791 24.8095 62.2661 25.0247 63.1229 25.0247C63.739 25.0247 64.218 24.8833 64.5598 24.6029C64.9031 24.3209 65.0755 23.9457 65.0755 23.4765C65.0755 23.0563 64.933 22.7036 64.651 22.417C64.3682 22.1319 63.9007 21.8647 63.2447 21.6208C61.4592 20.9458 60.5656 19.9577 60.5656 18.6597C60.5656 17.8115 60.8814 17.117 61.5105 16.574C62.1405 16.0318 62.9758 15.7607 64.0149 15.7607C64.943 15.7607 65.7162 15.9246 66.33 16.2517L65.92 17.6017C65.3422 17.2848 64.6901 17.1263 63.9605 17.1263C63.3842 17.1263 62.9313 17.27 62.6087 17.5559C62.3366 17.8115 62.1979 18.1229 62.1979 18.4927C62.1979 18.9005 62.355 19.2392 62.6685 19.5041C62.9397 19.7495 63.4348 20.016 64.1506 20.3018C65.0288 20.6607 65.6733 21.0786 66.0871 21.5587C66.5032 22.0387 66.7101 22.6376 66.7101 23.3523Z" fill="white"/>
<path d="M72.1257 20.0402H70.3248V23.6592C70.3248 24.5797 70.642 25.0388 71.2781 25.0388C71.5701 25.0388 71.8123 25.0139 72.0038 24.9619L72.0491 26.2195C71.7272 26.3415 71.3034 26.4028 70.7792 26.4028C70.1332 26.4028 69.6297 26.2024 69.2649 25.8039C68.9017 25.4047 68.7201 24.7358 68.7201 23.7944V20.0371H67.6479V18.7942H68.7201V17.4294L70.3248 16.9385V18.7942H72.1257V20.0402Z" fill="white"/>
<path d="M80.2351 22.4626C80.2351 23.6084 79.9124 24.5491 79.2664 25.2847C78.5913 26.0413 77.6931 26.4196 76.5735 26.4196C75.4929 26.4196 74.6339 26.0568 73.9932 25.3313C73.3526 24.6058 73.0322 23.6907 73.0322 22.5869C73.0322 21.4318 73.3641 20.4857 74.0231 19.7501C74.6837 19.0145 75.5742 18.6455 76.6938 18.6455C77.7736 18.6455 78.6395 19.0098 79.2963 19.7346C79.9232 20.4391 80.2351 21.3472 80.2351 22.4626ZM78.5415 22.5007C78.5415 21.8179 78.3959 21.2322 78.1039 20.742C77.7613 20.1501 77.2701 19.855 76.6356 19.855C75.9819 19.855 75.4784 20.1501 75.1374 20.742C74.8439 21.2322 74.699 21.828 74.699 22.5318C74.699 23.2153 74.8439 23.8026 75.1374 24.2904C75.4906 24.8831 75.9834 25.179 76.6225 25.179C77.2463 25.179 77.736 24.8761 78.0908 24.2764C78.3905 23.7746 78.5415 23.185 78.5415 22.5007Z" fill="white"/>
<path d="M85.5482 20.2538C85.3865 20.2235 85.2133 20.2088 85.0333 20.2088C84.4585 20.2088 84.014 20.4271 83.7014 20.8683C83.4293 21.2567 83.2937 21.7476 83.2937 22.3403V26.2514H81.6598V21.1448C81.6598 20.2865 81.6437 19.5027 81.6123 18.7981H83.0354L83.0952 20.2243H83.1404C83.3136 19.7342 83.5849 19.3388 83.9573 19.0436C84.3221 18.7764 84.7145 18.6436 85.1382 18.6436C85.2892 18.6436 85.4256 18.6552 85.5467 18.6738L85.5482 20.2538Z" fill="white"/>
<path d="M92.8552 22.1716C92.8552 22.4684 92.836 22.7185 92.7954 22.9228H87.8947C87.9123 23.6592 88.1506 24.2231 88.605 24.6115C89.0181 24.958 89.553 25.132 90.2082 25.132C90.934 25.132 91.5961 25.0155 92.1915 24.7793L92.4475 25.9289C91.7516 26.2358 90.9294 26.3896 89.9822 26.3896C88.8419 26.3896 87.9468 26.0494 87.2954 25.3704C86.6463 24.6908 86.3198 23.7765 86.3198 22.6331C86.3198 21.5098 86.6218 20.5738 87.2287 19.8273C87.8632 19.0303 88.7208 18.6318 89.7998 18.6318C90.8596 18.6318 91.662 19.0303 92.2061 19.8273C92.6383 20.4588 92.8552 21.2418 92.8552 22.1716ZM91.2972 21.7421C91.3087 21.2504 91.2014 20.8278 90.9799 20.4689C90.6972 20.0075 90.2619 19.7776 89.6787 19.7776C89.1438 19.7776 88.7093 20.0021 88.3782 20.4526C88.1062 20.8107 87.9445 21.2418 87.8947 21.7405L91.2972 21.7421Z" fill="white"/>
<path d="M36.5982 12.2138H35.7422L35.274 10.7216H33.6455L33.1987 12.2138H32.3657L33.9796 7.13281H34.9759L36.5982 12.2138ZM35.133 10.0955L34.7092 8.76872C34.6647 8.63278 34.5827 8.31663 34.4563 7.81172H34.441C34.3889 8.03 34.3145 8.34693 34.2026 8.76872L33.7865 10.0955H35.133Z" fill="white"/>
<path d="M40.634 8.5498L39.2653 12.2131H38.4844L37.1602 8.5498H38.0231L38.6407 10.4871C38.7449 10.811 38.8338 11.1202 38.9005 11.4138H38.9227C38.9825 11.1505 39.0714 10.8413 39.1825 10.4871L39.7925 8.5498H40.634Z" fill="white"/>
<path d="M43.5474 12.2133L43.4876 11.7915H43.4654C43.2202 12.1309 42.8631 12.2964 42.4094 12.2964C41.7626 12.2964 41.3013 11.8365 41.3013 11.2182C41.3013 10.314 42.0745 9.84641 43.4133 9.84641V9.77883C43.4133 9.29645 43.1604 9.05487 42.6623 9.05487C42.3052 9.05487 41.9925 9.14575 41.7182 9.32674L41.5549 8.79154C41.8898 8.58025 42.3059 8.47461 42.7972 8.47461C43.7413 8.47461 44.218 8.97952 44.218 9.99012V11.3394C44.218 11.7091 44.2333 11.9958 44.2701 12.214L43.5474 12.2133ZM43.4355 10.3886C42.5427 10.3886 42.0967 10.6077 42.0967 11.1273C42.0967 11.5118 42.3274 11.6998 42.647 11.6998C43.0562 11.6998 43.4355 11.3837 43.4355 10.9541V10.3886Z" fill="white"/>
<path d="M46.0067 7.94617C45.7392 7.94617 45.5308 7.73488 45.5308 7.45602C45.5308 7.17715 45.7461 6.97363 46.022 6.97363C46.2971 6.97363 46.5201 7.17715 46.5125 7.45602C46.5125 7.75042 46.3048 7.94617 46.0067 7.94617ZM45.6204 8.54973H46.4236V12.213H45.6204V8.54973Z" fill="white"/>
<path d="M47.8506 6.86914H48.6537V12.2134H47.8506V6.86914Z" fill="white"/>
<path d="M52.0669 12.2131L52.0064 11.7913H51.985C51.7397 12.1307 51.3826 12.2962 50.9289 12.2962C50.2821 12.2962 49.8208 11.8363 49.8208 11.218C49.8208 10.3138 50.594 9.84621 51.9328 9.84621V9.77863C51.9328 9.29625 51.6799 9.05467 51.1818 9.05467C50.8247 9.05467 50.512 9.14555 50.2377 9.32654L50.0737 8.79056C50.4086 8.57928 50.8247 8.47363 51.3159 8.47363C52.2601 8.47363 52.7375 8.97854 52.7375 9.98914V11.3384C52.7375 11.7082 52.7528 11.9948 52.7881 12.2131H52.0669ZM51.9551 10.3884C51.0623 10.3884 50.6163 10.6075 50.6163 11.1271C50.6163 11.5116 50.8469 11.6996 51.1665 11.6996C51.5757 11.6996 51.9551 11.3835 51.9551 10.9539V10.3884Z" fill="white"/>
<path d="M55.9905 12.2965C55.4778 12.2965 55.0993 12.0775 54.8533 11.6479H54.838L54.792 12.2134H54.1084C54.1299 11.9198 54.1375 11.5873 54.1375 11.2261V6.86914H54.9422V9.08608H54.9567C55.1951 8.67905 55.5813 8.47553 56.1093 8.47553C56.9799 8.47553 57.5899 9.22979 57.5899 10.3297C57.5899 11.4669 56.9124 12.2965 55.9905 12.2965ZM55.8273 9.11482C55.3652 9.11482 54.9422 9.52186 54.9422 10.0874V10.7282C54.9422 11.2331 55.3223 11.6479 55.8127 11.6479C56.4143 11.6479 56.773 11.1508 56.773 10.3592C56.7722 9.62051 56.3998 9.11482 55.8273 9.11482Z" fill="white"/>
<path d="M58.7783 6.86914H59.5807V12.2134H58.7783V6.86914Z" fill="white"/>
<path d="M63.9518 10.5773H61.5409C61.557 11.271 62.0091 11.6625 62.6781 11.6625C63.036 11.6625 63.3632 11.6019 63.6529 11.4893L63.7778 12.0548C63.436 12.2055 63.0345 12.2808 62.5663 12.2808C61.4351 12.2808 60.7661 11.5568 60.7661 10.4344C60.7661 9.31116 61.4512 8.4668 62.4766 8.4668C63.3977 8.4668 63.9794 9.16047 63.9794 10.2083C63.9817 10.3513 63.9748 10.4794 63.9518 10.5773ZM63.2161 9.99706C63.2161 9.43156 62.9326 9.0323 62.4191 9.0323C61.9578 9.0323 61.5945 9.43933 61.5409 9.99706H63.2161Z" fill="white"/>
<path d="M68.82 12.2964C67.7639 12.2964 67.0796 11.4971 67.0796 10.4119C67.0796 9.28091 67.7785 8.47461 68.8805 8.47461C69.9204 8.47461 70.6209 9.23586 70.6209 10.3521C70.6209 11.4971 69.899 12.2964 68.82 12.2964ZM68.8506 9.06963C68.2705 9.06963 67.8988 9.61959 67.8988 10.3886C67.8988 11.1429 68.2781 11.6928 68.8429 11.6928C69.4077 11.6928 69.7871 11.1048 69.7871 10.3731C69.7871 9.62736 69.4154 9.06963 68.8506 9.06963Z" fill="white"/>
<path d="M74.9383 12.2131H74.1367V10.1095C74.1367 9.4617 73.8907 9.13701 73.4071 9.13701C72.9312 9.13701 72.6032 9.55181 72.6032 10.0342V12.2131H71.8016V9.59686C71.8016 9.27294 71.7925 8.92572 71.771 8.54898H72.4776L72.5151 9.11448H72.5381C72.7519 8.72298 73.1918 8.47363 73.683 8.47363C74.4402 8.47363 74.9383 9.06166 74.9383 10.0187V12.2131Z" fill="white"/>
<path d="M80.193 9.16097H79.3094V10.9398C79.3094 11.3927 79.465 11.6187 79.7769 11.6187C79.9179 11.6187 80.0382 11.6032 80.134 11.5807L80.1562 12.199C79.9999 12.2596 79.7907 12.2899 79.5324 12.2899C78.8986 12.2899 78.5216 11.9356 78.5216 11.0082V9.16097H77.9951V8.55042H78.5216V7.87928L79.3094 7.6377V8.54964H80.193V9.16097Z" fill="white"/>
<path d="M84.4461 12.2134H83.6422V10.1254C83.6422 9.46982 83.3962 9.13813 82.9134 9.13813C82.4973 9.13813 82.111 9.42476 82.111 10.005V12.2134H81.3071V6.86914H82.111V9.06977H82.1263C82.3785 8.6705 82.744 8.47398 83.2123 8.47398C83.9778 8.47398 84.4461 9.07676 84.4461 10.0345V12.2134Z" fill="white"/>
<path d="M88.5499 10.5773H86.1398C86.1551 11.271 86.6073 11.6625 87.277 11.6625C87.6357 11.6625 87.9621 11.6019 88.2503 11.4893L88.376 12.0548C88.0349 12.2055 87.6326 12.2808 87.1636 12.2808C86.0333 12.2808 85.3643 11.5568 85.3643 10.4344C85.3643 9.31116 86.0486 8.4668 87.074 8.4668C87.9959 8.4668 88.5767 9.16047 88.5767 10.2083C88.5798 10.3513 88.5721 10.4794 88.5499 10.5773ZM87.8135 9.99706C87.8135 9.43156 87.5315 9.0323 87.018 9.0323C86.5567 9.0323 86.1927 9.43933 86.1398 9.99706H87.8135Z" fill="white"/>
</g>
<defs>
<clipPath id="clip0_1672_3207">
<rect width="102" height="35" fill="white" transform="translate(0 0.448242)"/>
</clipPath>
</defs>
</svg>
