<svg width="102" height="36" viewBox="0 0 102 36" fill="none" xmlns="http://www.w3.org/2000/svg">
<g clip-path="url(#clip0_1672_3240)">
<path d="M3.54694 0.948242H98.4531C100.143 0.948242 101.5 2.29636 101.5 3.94413V31.9524C101.5 33.6001 100.143 34.9482 98.4531 34.9482H3.54694C1.8573 34.9482 0.5 33.6001 0.5 31.9524V3.94413C0.5 2.29636 1.8573 0.948242 3.54694 0.948242Z" stroke="white"/>
<path d="M12.4437 17.2497C12.4437 17.2497 5.40627 13.2975 4.99295 13.0653C4.57894 12.8331 4.16699 12.974 4.16699 13.4593V21.8965V30.5052C4.16699 30.8685 4.46134 31.026 4.82102 30.8245C5.18001 30.623 12.4437 26.5432 12.4437 26.5432C12.4437 26.5432 13.4305 25.9893 13.9239 25.7124C14.7179 25.2667 16.306 24.3753 16.306 24.3753C16.306 24.3753 19.583 22.5345 20.019 22.2904C20.4544 22.0457 20.4124 21.7103 20.0452 21.5171C19.6772 21.3247 16.306 19.4183 16.306 19.4183L12.4437 17.2497Z" fill="url(#paint0_linear_1672_3240)"/>
<path d="M13.7427 21.8685L4.48885 12.9785C4.27296 13.0293 4.14355 13.193 4.14355 13.4685V21.8685V30.4785C4.14355 30.7122 4.23651 30.8513 4.35073 30.8985L13.7427 21.8685Z" fill="url(#paint1_linear_1672_3240)"/>
<mask id="mask0_1672_3240" style="mask-type:alpha" maskUnits="userSpaceOnUse" x="4" y="21" width="13" height="10">
<path d="M4.73164 30.8485L10.0804 27.8702C11.3975 27.1305 12.4429 26.5433 12.4429 26.5433L16.3326 24.4197L13.743 21.8691L4.35107 30.9003C4.45576 30.9344 4.64026 30.9157 4.7842 30.8437" fill="white"/>
</mask>
<g mask="url(#mask0_1672_3240)">
<path d="M12.4306 17.2484C12.4171 17.28 5.38235 13.3205 4.97226 13.1184C4.55534 12.8553 4.14355 12.9964 4.14355 13.4684V21.9384C4.14355 21.9353 4.14355 30.1951 4.14355 30.5484C4.14355 30.9237 4.43779 31.0816 4.76508 30.8984C5.15618 30.6778 12.4171 26.5905 12.4306 26.5584L16.2979 24.3884C16.2778 24.4187 19.5536 22.5744 19.958 22.3584C20.4246 22.0847 20.3826 21.7487 20.0271 21.5884C19.6477 21.3624 16.2778 19.4525 16.2979 19.4184L12.4306 17.2484Z" fill="url(#paint2_linear_1672_3240)"/>
</g>
<path d="M4.97977 13.0584C4.80163 12.9617 4.62463 12.9341 4.48145 12.9732L13.743 21.8761L16.3053 19.4183L12.443 17.2497C12.443 17.2497 8.80274 15.2054 6.6047 13.9709L4.97977 13.0584Z" fill="url(#paint3_linear_1672_3240)"/>
<path d="M69.8609 24.8691L69.0962 25.6048C68.9194 25.7038 68.7436 25.8188 68.5683 25.9004C68.0372 26.1463 67.497 26.2082 67.0171 26.2082C66.5063 26.2082 65.7055 26.1743 64.8887 25.5719C63.7539 24.757 63.2578 23.356 63.2578 22.1353C63.2578 19.6078 65.2758 18.3682 66.9218 18.3682C67.497 18.3682 68.0879 18.515 68.5683 18.8247C69.3672 19.3633 69.5738 20.0633 69.6884 20.4382L65.9297 21.9865L64.6987 22.0841C65.0972 24.1565 66.4722 25.3618 67.9917 25.3618C68.7507 25.3618 69.3141 25.1091 69.831 24.8488C69.831 24.8488 69.9348 24.7937 69.8609 24.8691ZM67.5643 20.7116C67.866 20.5978 68.0229 20.4995 68.0229 20.271C68.0229 19.6154 67.3085 18.8582 66.456 18.8582C65.8246 18.8582 64.639 19.3688 64.639 21.142C64.639 21.4187 64.6708 21.7134 64.6868 22.0082L67.5643 20.7116Z" fill="white"/>
<path d="M62.0166 24.7808C62.0166 25.4126 62.1271 25.5109 62.6509 25.5605C62.9238 25.5933 63.1958 25.6077 63.465 25.6405L62.8757 25.9986H60.0671C60.4355 25.5109 60.4987 25.4622 60.4987 25.1374V24.7745L60.4926 15.1055H59.2524L60.4463 14.5186H62.7255C62.2315 14.8106 62.0837 14.9884 62.0204 15.5575L62.0166 24.7808Z" fill="white"/>
<path d="M57.6593 19.166C58.0247 19.4729 58.7871 20.1243 58.7871 21.3598C58.7871 22.5639 58.1227 23.1315 57.4528 23.6688C57.2472 23.8803 57.0067 24.1096 57.0067 24.4643C57.0067 24.8242 57.2472 25.0193 57.4202 25.1649L57.995 25.6183C58.6937 26.221 59.3307 26.7737 59.3307 27.8964C59.3307 29.4258 57.8823 30.9681 55.1453 30.9681C52.8397 30.9681 51.7251 29.8459 51.7251 28.6428C51.7251 28.0573 52.0103 27.2281 52.9514 26.66C53.9378 26.0437 55.274 25.9613 55.9897 25.9132C55.7662 25.6183 55.5112 25.3094 55.5112 24.8054C55.5112 24.5298 55.5923 24.3655 55.6705 24.1718C55.4965 24.1887 55.3212 24.206 55.1618 24.206C53.4743 24.206 52.5205 22.9195 52.5205 21.6518C52.5205 20.904 52.8543 20.0742 53.5399 19.4729C54.447 18.7097 55.5286 18.5781 56.3881 18.5781H59.6669L58.6475 19.166H57.6593ZM56.5399 26.3658C56.4082 26.3481 56.3293 26.3481 56.1706 26.3481C56.0251 26.3481 55.1587 26.3805 54.4875 26.613C54.1325 26.7469 53.1063 27.1428 53.1063 28.3186C53.1063 29.492 54.2142 30.3381 55.9282 30.3381C57.4682 30.3381 58.2857 29.5763 58.2857 28.5506C58.2857 27.7064 57.7567 27.261 56.5399 26.3658ZM56.9898 23.2342C57.356 22.86 57.3879 22.3431 57.3879 22.0497C57.3879 20.8838 56.7086 19.0681 55.3917 19.0681C54.981 19.0681 54.5359 19.279 54.2833 19.6052C54.0153 19.9428 53.935 20.3809 53.935 20.8022C53.935 21.8878 54.5537 23.6881 55.9147 23.6881C56.3119 23.6881 56.7391 23.4907 56.9898 23.2342Z" fill="white"/>
<path d="M47.7431 26.2082C45.2086 26.2082 43.8525 24.1816 43.8525 22.3466C43.8525 20.2026 45.5573 18.3682 47.9822 18.3682C50.3262 18.3682 51.7943 20.2526 51.7943 22.2312C51.7943 24.1636 50.3433 26.2082 47.7431 26.2082ZM49.7252 24.8827C50.1121 24.3573 50.206 23.7014 50.206 23.062C50.206 21.616 49.5346 18.8582 47.5504 18.8582C47.0227 18.8582 46.4912 19.0698 46.1081 19.4153C45.4833 19.9899 45.3718 20.712 45.3718 21.4204C45.3718 23.0426 46.1532 25.7182 48.0923 25.7182C48.7182 25.7182 49.3568 25.4073 49.7252 24.8827Z" fill="white"/>
<path d="M39.2482 26.2082C36.7122 26.2082 35.3579 24.1816 35.3579 22.3466C35.3579 20.2026 37.0639 18.3682 39.4888 18.3682C41.8324 18.3682 43.2997 20.2526 43.2997 22.2312C43.2997 24.1636 41.8499 26.2082 39.2482 26.2082ZM41.2313 24.8827C41.6155 24.3573 41.7113 23.7014 41.7113 23.062C41.7113 21.616 41.0378 18.8582 39.0545 18.8582C38.5246 18.8582 37.9986 19.0698 37.6144 19.4153C36.9882 19.9899 36.8772 20.712 36.8772 21.4204C36.8772 23.0426 37.6623 25.7182 39.599 25.7182C40.2238 25.7182 40.8618 25.4073 41.2313 24.8827Z" fill="white"/>
<path d="M34.3067 25.7244L32.1599 26.2259C31.2901 26.3658 30.509 26.4888 29.6819 26.4888C25.5412 26.4888 23.9634 23.3795 23.9634 20.946C23.9634 17.9742 26.1989 15.2188 30.0274 15.2188C30.8374 15.2188 31.6166 15.3403 32.3265 15.5378C33.4516 15.8602 33.9778 16.2576 34.3067 16.4904L33.0596 17.6987L32.5338 17.8188L32.9087 17.2093C32.401 16.7034 31.4676 15.7696 29.6962 15.7696C27.3278 15.7696 25.5412 17.6063 25.5412 20.2876C25.5412 23.1674 27.5812 25.8764 30.8531 25.8764C31.8145 25.8764 32.3094 25.6794 32.7588 25.4954V23.0266L30.4919 23.151L31.6934 22.4926H34.8747L34.4856 22.8746C34.3807 22.9656 34.3665 22.9966 34.337 23.1185C34.3214 23.258 34.3067 23.7014 34.3067 23.8573V25.7244Z" fill="white"/>
<path d="M74.4937 24.9439V29.0782H73.6855V18.5582H74.4937V19.7563C75.0202 18.9819 75.9822 18.3682 77.0995 18.3682C79.1036 18.3682 80.4533 19.9127 80.4533 22.3576C80.4533 24.7862 79.1036 26.3629 77.0995 26.3629C76.0447 26.3629 75.0997 25.8102 74.4937 24.9439ZM79.6246 22.4206C79.6246 20.5585 78.6756 19.1382 76.9929 19.1382C75.9479 19.1382 74.9486 19.9781 74.5143 20.7106V24.1136C74.9486 24.8476 75.9479 25.7182 76.9929 25.7182C78.6756 25.7182 79.6246 24.2857 79.6246 22.4206Z" fill="white"/>
<path d="M81.5586 15.6387H82.3873V26.2087H81.5586V15.6387Z" fill="white"/>
<path d="M91.3971 28.3509C91.5699 28.4293 91.8649 28.4774 92.0519 28.4774C92.5462 28.4774 92.8904 28.272 93.1996 27.5464L93.7891 26.1892L90.6055 18.5088H91.507L94.2379 25.1645L96.9424 18.5088H97.8567L93.9737 27.801C93.5708 28.7584 92.9368 29.2188 92.0661 29.2188C91.8048 29.2188 91.4601 29.1716 91.2584 29.1086L91.3971 28.3509Z" fill="white"/>
<path d="M89.1157 26.1977C89.0615 25.9322 89.0205 25.6981 88.9905 25.5027C88.9658 25.3077 88.9515 25.1085 88.9515 24.9058C88.6729 25.3213 88.2782 25.6671 87.7739 25.9394C87.2692 26.2137 86.7897 26.3482 86.1321 26.3482C85.3403 26.3482 84.7255 26.1503 84.287 25.7489C83.8499 25.3479 83.6299 24.8047 83.6299 24.1174C83.6299 23.431 83.9484 22.8738 84.5836 22.4476C85.2188 22.0196 86.0397 21.8068 87.0559 21.8068H88.9515V20.8553C88.9515 20.3073 88.7677 19.8763 88.4006 19.5639C88.032 19.2509 87.5149 19.0927 86.8445 19.0927C86.2316 19.0927 85.7345 19.2374 85.356 19.5189C84.9808 19.8062 84.7917 20.1622 84.7917 20.5912H83.9599L83.9427 20.5501C83.9127 19.9716 84.1732 19.4642 84.727 19.026C85.2784 18.5882 86.0007 18.3682 86.8897 18.3682C87.7758 18.3682 88.4929 18.5849 89.0334 19.0173C89.5733 19.4454 89.8443 20.064 89.8443 20.8727V24.6504C89.8443 24.9217 89.8571 25.1839 89.8905 25.4393C89.9247 25.6952 89.9795 25.9506 90.0524 26.1977H89.1157ZM86.2299 25.6482C86.9197 25.6482 87.4155 25.4906 87.9222 25.179C88.4255 24.8693 88.7681 24.4653 88.9474 23.9762V22.4982H87.0444C86.3174 22.4982 85.7156 22.6625 85.2422 22.9941C84.7679 23.3247 84.5276 23.7248 84.5276 24.1901C84.5276 24.6291 84.6799 24.9801 84.9825 25.2461C85.286 25.5149 85.7009 25.6482 86.2299 25.6482Z" fill="white"/>
<path d="M23.6899 8.51971C23.6899 7.0119 24.8778 6.04199 26.3549 6.04199C27.3449 6.04199 27.9923 6.48747 28.3957 7.03299L27.6726 7.42822C27.3986 7.06888 26.9186 6.78939 26.3549 6.78939C25.3502 6.78939 24.6038 7.50718 24.6038 8.51971C24.6038 9.51743 25.3502 10.25 26.3549 10.25C26.873 10.25 27.3297 10.0275 27.558 9.81935V9.07958H26.0352V8.33981H28.4414V10.128C27.9467 10.6524 27.2307 11.0042 26.3549 11.0042C24.8778 11.0042 23.6899 10.0208 23.6899 8.51971Z" fill="white"/>
<path d="M29.5933 10.9314V6.11523H33.1209V6.85952H30.4965V8.1009H33.0669V8.84474H30.4965V10.1876H33.1209V10.9314H29.5933Z" fill="white"/>
<path d="M35.52 10.9314V6.85952H33.9849V6.11523H37.9444V6.85952H36.4093V10.9314H35.52Z" fill="white"/>
<path d="M41.1118 6.11523H41.9757V10.9314H41.1118V6.11523Z" fill="white"/>
<path d="M44.4472 10.9314V6.85952H42.9116V6.11523H46.8712V6.85952H45.3365V10.9314H44.4472Z" fill="white"/>
<path d="M49.8232 8.5233C49.8232 7.09193 50.9098 6.04199 52.4512 6.04199C53.984 6.04199 55.0787 7.09193 55.0787 8.5233C55.0787 9.95421 53.984 11.0042 52.4512 11.0042C50.9098 11.0042 49.8232 9.95421 49.8232 8.5233ZM54.1428 8.48659C54.1428 7.50444 53.477 6.77172 52.4512 6.77172C51.4177 6.77172 50.7591 7.50444 50.7591 8.48659C50.7591 9.46117 51.4177 10.2015 52.4512 10.2015C53.477 10.2015 54.1428 9.46117 54.1428 8.48659Z" fill="white"/>
<path d="M59.6193 10.9314L56.975 7.48743V10.9314H56.0864V6.11523H56.9982L59.5889 9.45145V6.11523H60.4779V10.9314H59.6193Z" fill="white"/>
</g>
<defs>
<linearGradient id="paint0_linear_1672_3240" x1="13.6916" y1="14.6782" x2="19.6634" y2="23.3193" gradientUnits="userSpaceOnUse">
<stop stop-color="#FF177B"/>
<stop offset="1" stop-color="#FFEC73"/>
</linearGradient>
<linearGradient id="paint1_linear_1672_3240" x1="7.70514" y1="5.0874" x2="-3.06449" y2="27.6475" gradientUnits="userSpaceOnUse">
<stop stop-color="#064AA2"/>
<stop offset="1" stop-color="#63FFD4"/>
</linearGradient>
<linearGradient id="paint2_linear_1672_3240" x1="16.8506" y1="21.9811" x2="3.78662" y2="29.6861" gradientUnits="userSpaceOnUse">
<stop stop-color="#FF4521"/>
<stop offset="1" stop-color="#8A33DB"/>
</linearGradient>
<linearGradient id="paint3_linear_1672_3240" x1="4.48145" y1="10.7986" x2="9.23561" y2="22.984" gradientUnits="userSpaceOnUse">
<stop stop-color="#00A3B5"/>
<stop offset="1" stop-color="#D6FFA1"/>
</linearGradient>
<clipPath id="clip0_1672_3240">
<rect width="102" height="35" fill="white" transform="translate(0 0.448242)"/>
</clipPath>
</defs>
</svg>
